<?xml version="1.0" encoding="UTF-8"?>
<svg id="Logo" xmlns="http://www.w3.org/2000/svg" viewBox="0 0 512 512">
  <path d="M274,0l43.83,7.67c90.55,22.21,163.26,94.54,186.1,184.9,3.71,14.68,5.18,29.62,8.07,44.43v39c-3.06,14.43-4.44,29.07-8.07,43.43-22.71,89.84-94.64,161.78-184.5,184.5-14.68,3.71-29.62,5.18-44.43,8.07h-39c-14.43-3.06-29.07-4.44-43.43-8.07-89.84-22.71-161.78-94.64-184.5-184.5-3.63-14.35-5.01-28.99-8.07-43.43v-40c3.06-14.43,4.44-29.08,8.07-43.43C30.79,102.73,102.71,30.79,192.57,8.07L237,0h37ZM112,136c-8.58.97-23.39-4.03-24,8.5l-.04,238.04c.67,7.25,2.27,8.83,9.5,9.5,37.4,3.46,80-2.74,117.95.05,11.79,1.61,14.73,13.06,23.25,18.75,9.94,6.62,24.73,6.63,34.67,0,9.41-6.27,10.67-17.07,24.28-18.72,36.05-4.38,80.22,3.32,116.93-.07,7.23-.67,8.83-2.25,9.5-9.5l-.04-238.04c-.61-12.53-15.42-7.53-24-8.5-.05-10.65.04-21.35,0-32h-123.5c-5.86,0-15.04,6.99-17.7,12.3l-3.29,6.71c-1.06-6.34-6.02-13.34-11.81-16.21-.98-.49-7.7-2.8-8.2-2.8h-123.5c-.04,10.65.05,21.35,0,32Z" style="fill: #4ac594;"/>
  <path d="M112,136c.05-10.65-.04-21.35,0-32h123.5c.5,0,7.22,2.31,8.2,2.8,5.78,2.87,10.74,9.87,11.81,16.21l3.29-6.71c2.66-5.3,11.84-12.3,17.7-12.3h123.5c.04,10.65-.05,21.35,0,32,.36,71.95.56,144.06,0,216h-129.5c-5.19.42-9.52,3.46-12.37,7.64-.92,1.35-.83,4.1-1.64,4.37-1.95.66-1.82-3.33-3.03-4.97-2.87-3.9-7.01-6.63-11.96-7.04H112c-.56-71.94-.36-144.05,0-216ZM176,128h-32v56h32v-56ZM195.5,132l-2.55,4.45c-.06,1.04,2.05,3.55,2.55,3.55h38c.73,0,3.08-3.17,2.55-4.45.06-1.04-2.05-3.55-2.55-3.55h-38ZM278.5,132l-2.55,4.45c-.06,1.04,2.05,3.55,2.55,3.55h91c.73,0,3.08-3.17,2.55-4.45.06-1.04-2.05-3.55-2.55-3.55h-91ZM195.5,156l-2.55,4.45c-.06,1.04,2.05,3.55,2.55,3.55h38c.73,0,3.08-3.17,2.55-4.45.06-1.04-2.05-3.55-2.55-3.55h-38ZM278.5,156l-2.55,4.45c-.06,1.04,2.05,3.55,2.55,3.55h91c.73,0,3.08-3.17,2.55-4.45.06-1.04-2.05-3.55-2.55-3.55h-91ZM195.5,180l-2.55,4.45c-.06,1.04,2.05,3.55,2.55,3.55h38c.73,0,3.08-3.17,2.55-4.45.06-1.04-2.05-3.55-2.55-3.55h-38ZM278.5,180l-2.55,4.45c-.06,1.04,2.05,3.55,2.55,3.55h91c.73,0,3.08-3.17,2.55-4.45.06-1.04-2.05-3.55-2.55-3.55h-91ZM142.5,204l-2.55,4.45c-.06,1.04,2.05,3.55,2.55,3.55h91c.73,0,3.08-3.17,2.55-4.45.06-1.04-2.05-3.55-2.55-3.55h-91ZM278.5,204l-2.55,4.45c-.06,1.04,2.05,3.55,2.55,3.55h91c.73,0,3.08-3.17,2.55-4.45.06-1.04-2.05-3.55-2.55-3.55h-91ZM142.5,228l-2.55,4.45c-.06,1.04,2.05,3.55,2.55,3.55h91c.73,0,3.08-3.17,2.55-4.45.06-1.04-2.05-3.55-2.55-3.55h-91ZM278.5,228l-2.55,4.45c-.06,1.04,2.05,3.55,2.55,3.55h91c.73,0,3.08-3.17,2.55-4.45.06-1.04-2.05-3.55-2.55-3.55h-91ZM142.5,252l-2.55,4.45c-.06,1.04,2.05,3.55,2.55,3.55h91c.5,0,2.61-2.51,2.55-3.55.53-1.28-1.82-4.45-2.55-4.45h-91ZM278.5,252l-2.55,4.45c-.06,1.04,2.05,3.55,2.55,3.55h91c.5,0,2.61-2.51,2.55-3.55.53-1.28-1.82-4.45-2.55-4.45h-91ZM142.5,276l-2.55,4.45c-.06,1.04,2.05,3.55,2.55,3.55h91c.73,0,3.08-3.17,2.55-4.45.06-1.04-2.05-3.55-2.55-3.55h-91ZM278.5,276l-2.55,4.45c-.06,1.04,2.05,3.55,2.55,3.55h91c.73,0,3.08-3.17,2.55-4.45.06-1.04-2.05-3.55-2.55-3.55h-91ZM142.5,300l-2.55,4.45c-.06,1.04,2.05,3.55,2.55,3.55h91c.73,0,3.08-3.17,2.55-4.45.06-1.04-2.05-3.55-2.55-3.55h-91ZM278.5,300l-2.55,4.45c-.06,1.04,2.05,3.55,2.55,3.55h91c.73,0,3.08-3.17,2.55-4.45.06-1.04-2.05-3.55-2.55-3.55h-91ZM142.5,324l-2.55,4.45c-.06,1.04,2.05,3.55,2.55,3.55h91c.73,0,3.08-3.17,2.55-4.45.06-1.04-2.05-3.55-2.55-3.55h-91ZM278.5,324l-2.55,4.45c-.06,1.04,2.05,3.55,2.55,3.55h91c.73,0,3.08-3.17,2.55-4.45.06-1.04-2.05-3.55-2.55-3.55h-91Z" style="fill: #fefefe;"/>
  <path d="M112,136c-.36,71.95-.56,144.06,0,216,.04,5.32-.03,10.68,0,16h131.5c.72,0,5.03,2.29,6.01,2.99l6.98,9.02c.32-4.4,7.9-12.01,12.01-12.01h131.5c.03-5.32-.04-10.68,0-16,.56-71.94.36-144.05,0-216,8.58.97,23.39-4.03,24,8.5l.04,238.04c-.67,7.25-2.27,8.83-9.5,9.5-36.7,3.4-80.88-4.3-116.93.07-13.61,1.65-14.87,12.45-24.28,18.72-9.94,6.63-24.73,6.62-34.67,0-8.52-5.68-11.47-17.14-23.25-18.75-37.95-2.79-80.55,3.41-117.95-.05-7.23-.67-8.83-2.25-9.5-9.5l.04-238.04c.61-12.53,15.42-7.53,24-8.5Z" style="fill: #424d72;"/>
  <path d="M112,352h129.5c4.94.41,9.09,3.14,11.96,7.04,1.21,1.64,1.08,5.63,3.03,4.97.8-.27.71-3.02,1.64-4.37,2.85-4.18,7.18-7.22,12.37-7.64h129.5c-.04,5.32.03,10.68,0,16h-131.5c-4.11,0-11.69,7.6-12.01,12.01l-6.98-9.02c-.98-.7-5.29-2.99-6.01-2.99H112c-.03-5.32.04-10.68,0-16Z" style="fill: #e2e6ed;"/>
  <rect x="144" y="128" width="32" height="56" style="fill: #58d1f6;"/>
  <path d="M278.5,132h91c.5,0,2.61,2.51,2.55,3.55.53,1.28-1.82,4.45-2.55,4.45h-91c-.5,0-2.61-2.51-2.55-3.55l2.55-4.45Z" style="fill: #e3e6ee;"/>
  <path d="M278.5,156h91c.5,0,2.61,2.51,2.55,3.55.53,1.28-1.82,4.45-2.55,4.45h-91c-.5,0-2.61-2.51-2.55-3.55l2.55-4.45Z" style="fill: #e4e7ee;"/>
  <path d="M278.5,180h91c.5,0,2.61,2.51,2.55,3.55.53,1.28-1.82,4.45-2.55,4.45h-91c-.5,0-2.61-2.51-2.55-3.55l2.55-4.45Z" style="fill: #e4e7ee;"/>
  <path d="M142.5,204h91c.5,0,2.61,2.51,2.55,3.55.53,1.28-1.82,4.45-2.55,4.45h-91c-.5,0-2.61-2.51-2.55-3.55l2.55-4.45Z" style="fill: #e4e7ee;"/>
  <path d="M278.5,204h91c.5,0,2.61,2.51,2.55,3.55.53,1.28-1.82,4.45-2.55,4.45h-91c-.5,0-2.61-2.51-2.55-3.55l2.55-4.45Z" style="fill: #e4e7ee;"/>
  <path d="M142.5,228h91c.5,0,2.61,2.51,2.55,3.55.53,1.28-1.82,4.45-2.55,4.45h-91c-.5,0-2.61-2.51-2.55-3.55l2.55-4.45Z" style="fill: #e4e7ee;"/>
  <path d="M278.5,228h91c.5,0,2.61,2.51,2.55,3.55.53,1.28-1.82,4.45-2.55,4.45h-91c-.5,0-2.61-2.51-2.55-3.55l2.55-4.45Z" style="fill: #e4e7ee;"/>
  <path d="M142.5,252h91c.73,0,3.08,3.17,2.55,4.45.06,1.04-2.05,3.55-2.55,3.55h-91c-.5,0-2.61-2.51-2.55-3.55l2.55-4.45Z" style="fill: #e4e7ee;"/>
  <path d="M278.5,252h91c.73,0,3.08,3.17,2.55,4.45.06,1.04-2.05,3.55-2.55,3.55h-91c-.5,0-2.61-2.51-2.55-3.55l2.55-4.45Z" style="fill: #e4e7ee;"/>
  <path d="M142.5,276h91c.5,0,2.61,2.51,2.55,3.55.53,1.28-1.82,4.45-2.55,4.45h-91c-.5,0-2.61-2.51-2.55-3.55l2.55-4.45Z" style="fill: #e4e7ee;"/>
  <path d="M278.5,276h91c.5,0,2.61,2.51,2.55,3.55.53,1.28-1.82,4.45-2.55,4.45h-91c-.5,0-2.61-2.51-2.55-3.55l2.55-4.45Z" style="fill: #e4e7ee;"/>
  <path d="M142.5,300h91c.5,0,2.61,2.51,2.55,3.55.53,1.28-1.82,4.45-2.55,4.45h-91c-.5,0-2.61-2.51-2.55-3.55l2.55-4.45Z" style="fill: #e4e7ee;"/>
  <path d="M278.5,300h91c.5,0,2.61,2.51,2.55,3.55.53,1.28-1.82,4.45-2.55,4.45h-91c-.5,0-2.61-2.51-2.55-3.55l2.55-4.45Z" style="fill: #e4e7ee;"/>
  <path d="M142.5,324h91c.5,0,2.61,2.51,2.55,3.55.53,1.28-1.82,4.45-2.55,4.45h-91c-.5,0-2.61-2.51-2.55-3.55l2.55-4.45Z" style="fill: #e4e7ee;"/>
  <path d="M278.5,324h91c.5,0,2.61,2.51,2.55,3.55.53,1.28-1.82,4.45-2.55,4.45h-91c-.5,0-2.61-2.51-2.55-3.55l2.55-4.45Z" style="fill: #e4e7ee;"/>
  <path d="M195.5,132h38c.5,0,2.61,2.51,2.55,3.55.53,1.28-1.82,4.45-2.55,4.45h-38c-.5,0-2.61-2.51-2.55-3.55l2.55-4.45Z" style="fill: #e4e6ee;"/>
  <path d="M195.5,156h38c.5,0,2.61,2.51,2.55,3.55.53,1.28-1.82,4.45-2.55,4.45h-38c-.5,0-2.61-2.51-2.55-3.55l2.55-4.45Z" style="fill: #e4e7ee;"/>
  <path d="M195.5,180h38c.5,0,2.61,2.51,2.55,3.55.53,1.28-1.82,4.45-2.55,4.45h-38c-.5,0-2.61-2.51-2.55-3.55l2.55-4.45Z" style="fill: #e4e7ee;"/>
</svg>